<svg xmlns="http://www.w3.org/2000/svg" viewBox="0 0 13.46 15.87"><defs><style>.cls-1{fill:#fff;}</style></defs><g id="Ebene_2" data-name="Ebene 2"><g id="Ebene_1-2" data-name="Ebene 1"><path d="M8.51,11.78a6.25,6.25,0,0,1-3.19.38.52.52,0,0,0-.37.18L1.84,15.59c-.2.21-.39.39-.72.2-.59-.32-.66-.44-.35-1,.42-.84.88-1.67,1.32-2.5.07-.13.13-.25.19-.38-.62-.25-.67-.37-.33-.91.13-.2.08-.31-.07-.45A6,6,0,0,1,.08,7.06a6,6,0,0,1,5.06-7c.31,0,.63-.06,1-.07h5.07c.17,0,.43.08.48.19a.7.7,0,0,1-.15.51c-.27.4-.57.78-.86,1.16a6.29,6.29,0,0,1,.3,8c.64.65,1.28,1.31,1.94,1.95a1.72,1.72,0,1,1-2.55,2.26L8.88,12.25C8.77,12.1,8.64,12,8.51,11.78ZM3.35,6.93H4.84A2.37,2.37,0,0,1,5.2,7a2,2,0,0,1-.12.37L2.86,10.76a4,4,0,0,0-.2.35c.55.36.56.36.24,1-.44.82-.9,1.64-1.34,2.46-.08.15-.14.33-.21.49l.1.07,5-5.27-.21,0-.5-.11A2.22,2.22,0,0,1,6,9.18L8.39,6.43c.08-.09.15-.2.27-.35L8.32,6H7.09c-.36,0-.43-.14-.23-.45L7,5.44l3.35-4.35c.07-.08.12-.18.22-.32-1,0-1.85,0-2.74,0-.12,0-.26.15-.34.26Q5.53,3.76,3.61,6.49C3.53,6.6,3.47,6.72,3.35,6.93ZM6.88.81A5.26,5.26,0,0,0,1.13,4a5.37,5.37,0,0,0,1.41,6.1l.62-1L3.09,9a4.07,4.07,0,0,1-.87-4.51,3.94,3.94,0,0,1,3.7-2.58.44.44,0,0,0,.25-.13C6.41,1.49,6.64,1.15,6.88.81Zm2.5,2.62.24.35a4.17,4.17,0,0,1-2.18,6.28c-.81.24-1.16.89-1.76,1.37a5.14,5.14,0,0,0,5.25-2.91,5.39,5.39,0,0,0-.82-6Zm-.17,8c.6.78,1.18,1.57,1.81,2.33a.93.93,0,0,0,1.37.09.92.92,0,0,0,.1-1.36c-.66-.71-1.33-1.41-2-2.09ZM2.66,6.72l2.79-4C3.8,2.75,2.46,4.64,2.66,6.72ZM6.88,9.1c.3.06.58.22.77.14A3.2,3.2,0,0,0,9.55,6.1ZM9.57,5.29,9,4,8,5.29Zm-6,3.23.6-.91H2.88Z"/><path class="cls-1" d="M3.35,6.93c.12-.21.18-.33.26-.44Q5.53,3.76,7.46,1c.08-.11.22-.26.34-.26.89,0,1.78,0,2.74,0-.1.14-.15.24-.22.32L7,5.44l-.11.15c-.2.31-.13.44.23.45H8.32l.34,0c-.12.15-.19.26-.27.35L6,9.18a2.22,2.22,0,0,0-.23.49l.5.11.21,0-5,5.27L1.35,15c.07-.16.13-.34.21-.49.44-.82.9-1.64,1.34-2.46.32-.6.31-.6-.24-1a4,4,0,0,1,.2-.35L5.08,7.39A2,2,0,0,0,5.2,7a2.37,2.37,0,0,0-.36-.09Z"/><path class="cls-1" d="M6.88.81c-.24.34-.47.68-.71,1a.44.44,0,0,1-.25.13,3.94,3.94,0,0,0-3.7,2.58A4.07,4.07,0,0,0,3.09,9l.07.1-.62,1A5.37,5.37,0,0,1,1.13,4,5.26,5.26,0,0,1,6.88.81Z"/><path class="cls-1" d="M9.38,3.43l.73-.94a5.39,5.39,0,0,1,.82,6,5.14,5.14,0,0,1-5.25,2.91c.6-.48,1-1.13,1.76-1.37A4.17,4.17,0,0,0,9.62,3.78Z"/><path class="cls-1" d="M9.21,11.44l1.3-1c.65.68,1.32,1.38,2,2.09a.92.92,0,0,1-.1,1.36A.93.93,0,0,1,11,13.77C10.39,13,9.81,12.22,9.21,11.44ZM12.15,13a.5.5,0,0,0-.5-.51.49.49,0,0,0-.52.49.51.51,0,0,0,.5.52A.5.5,0,0,0,12.15,13Z"/><path d="M12.15,13a.5.5,0,0,1-.52.5.51.51,0,0,1-.5-.52.49.49,0,0,1,.52-.49A.5.5,0,0,1,12.15,13Z"/></g></g></svg>